<svg width="47" height="53" viewBox="0 0 47 53" fill="none" xmlns="http://www.w3.org/2000/svg">
<path d="M6.439 46.4153L6.43913 46.4144L9.26784 28.0462L8.42774 27.9168L21.5694 16.9777V17.8277H39.0036C40.6998 17.8277 42.1569 19.0963 42.4037 20.8313L46.0511 46.4781C46.4386 49.2033 44.5793 51.7099 41.9313 52.0992C41.7013 52.133 41.4694 52.15 41.2371 52.15H11.2436C8.57038 52.15 6.3793 49.9427 6.3793 47.19C6.3793 46.9305 6.39926 46.6715 6.439 46.4153Z" stroke="#221E1E" stroke-width="1.7"/>
<path d="M33.5711 17.1628C33.5711 14.8954 33.5711 13.2844 33.5711 12.3297C33.5711 7.99777 30.3092 4.48608 26.2854 4.48608C22.7791 4.48608 19.8513 7.15258 19.1562 10.7047" stroke="#221E1E" stroke-width="1.7"/>
<path d="M37.2854 17.0193C37.2854 14.8353 37.2854 13.2721 37.2854 12.3296C37.2854 6.07244 32.2966 1 26.1426 1C20.9211 1 16.5384 4.65162 15.3301 9.58022" stroke="#221E1E" stroke-width="1.7"/>
<path d="M11.571 22.2067C13.149 22.2067 14.4282 20.906 14.4282 19.3016C14.4282 17.6972 13.149 16.3966 11.571 16.3966C9.99305 16.3966 8.71387 17.6972 8.71387 19.3016C8.71387 20.906 9.99305 22.2067 11.571 22.2067Z" stroke="#221E1E" stroke-width="1.7"/>
<path d="M11.8574 16.1396C11.8574 16.1396 14.5208 6.06704 19.5832 11.1033C24.6457 16.1396 14.8628 19.5588 14.8628 19.5588C14.8628 19.5588 14.1269 18.0778 13.588 17.4647C13.0491 16.8515 11.8574 16.1396 11.8574 16.1396Z" stroke="#221E1E" stroke-width="1.7"/>
<path d="M11.0853 22.7345C11.0853 22.7345 7.55414 32.5366 2.94991 27.0782C-1.65432 21.6199 8.38935 19.0664 8.38935 19.0664C8.38935 19.0664 8.99329 20.6059 9.47671 21.2636C9.96013 21.9214 11.0853 22.7345 11.0853 22.7345Z" stroke="#221E1E" stroke-width="1.7"/>
<path d="M9.07473 21.3352C9.07473 21.3352 8.10193 21.7003 7.2887 22.5332C6.47547 23.366 5.85742 24.3575 5.85742 24.3575" stroke="#221E1E" stroke-width="1.7"/>
<path d="M13.5684 16.8271C13.5684 16.8271 14.3955 15.7381 15.1033 14.9993C15.8111 14.2605 16.8169 13.5551 16.8169 13.5551" stroke="#221E1E" stroke-width="1.7"/>
<path d="M8.98926 27.43L12.5734 34.4783C12.6723 34.6728 12.9538 34.6619 13.0374 34.4603L14.2899 31.4399C14.3321 31.3384 14.4344 31.2752 14.544 31.2829L17.49 31.49C17.6848 31.5037 17.8224 31.3028 17.7392 31.1261L13.361 21.8264" stroke="#221E1E" stroke-width="1.7"/>
<path d="M14.3262 20.7854L23.1466 25.423C23.3208 25.5147 23.5289 25.3831 23.521 25.1864L23.3949 22.0775C23.3905 21.9675 23.457 21.8669 23.5601 21.828L26.6004 20.6801C26.8097 20.6011 26.8237 20.3102 26.6228 20.2115L20.1353 17.0239" stroke="#221E1E" stroke-width="1.7"/>
</svg>
