<svg width="36" height="48" viewBox="0 0 36 48" fill="none" xmlns="http://www.w3.org/2000/svg">
<path d="M17.9613 8.50769L2.04334 18.1388C1.72801 18.3295 1.54319 18.6721 1.57192 19.0395C1.75302 21.3558 2.62992 29.9628 5.95853 35.5283C9.31058 41.133 16.0657 45.2682 17.8277 46.2821C18.0985 46.438 18.4183 46.448 18.696 46.3047C20.3747 45.4386 26.4665 41.9694 30.1711 35.5283C33.852 29.1284 34.7509 21.2613 34.9375 19.0511C34.9689 18.6789 34.7786 18.3304 34.4561 18.142L17.9613 8.50769Z" stroke="#221E1E" stroke-width="2"/>
<path d="M1.6709 18.4866C1.6709 18.4866 9.79369 22.6744 18.026 22.6744C26.2584 22.6744 34.3812 18.4866 34.3812 18.4866" stroke="#221E1E" stroke-width="2"/>
<path d="M8.91309 21.3162L18.1992 9.00391L27.4853 21.3162" stroke="#221E1E" stroke-width="2"/>
<path d="M18 8.28109C18 8.28109 18.2608 4.68215 19.6921 3.32738C21.1234 1.97262 23.5828 1.57724 24.3376 2.28233C25.0923 2.98742 24.5576 5.5318 22.9221 7.07987C21.2866 8.62794 18 8.28109 18 8.28109Z" stroke="#221E1E" stroke-width="2"/>
<path d="M17.8063 8.53293C17.8063 8.53293 14.2124 8.20932 12.8828 6.75461C11.5532 5.29991 11.2009 2.83397 11.919 2.09163C12.6372 1.3493 15.1718 1.92835 16.6911 3.59062C18.2104 5.25289 17.8063 8.53293 17.8063 8.53293Z" stroke="#221E1E" stroke-width="2"/>
</svg>
