<svg width="57" height="46" viewBox="0 0 57 46" fill="none" xmlns="http://www.w3.org/2000/svg">
<path fill-rule="evenodd" clip-rule="evenodd" d="M56.7682 39.3001L55.0943 33.8968V27.4115C55.0943 14.5038 45.0023 3.8937 32.244 2.95567L32.2448 2.93892C32.2465 2.90217 32.2481 2.86547 32.2481 2.82851C32.2481 1.29702 30.9937 0.0511475 29.4519 0.0511475H27.5481C26.0062 0.0511475 24.7519 1.29713 24.7519 2.82851C24.7519 2.86549 24.7535 2.90222 24.7552 2.93899L24.756 2.95567C11.9977 3.89392 1.90566 14.5039 1.90566 27.4116V33.8969L0.231734 39.3001C-0.295516 41.0019 0.089234 42.8237 1.26063 44.1734C2.42312 45.513 4.16529 46.1545 5.92105 45.89C12.5111 44.8965 20.3188 44.3715 28.4999 44.3715C36.6811 44.3715 44.4889 44.8966 51.0788 45.89C51.3397 45.9294 51.6 45.9486 51.8584 45.9486C53.339 45.9486 54.7493 45.3139 55.7393 44.1733C56.9108 42.8237 57.2954 41.002 56.7682 39.3001ZM53.3095 27.4115V32.8745C51.2777 32.358 48.9955 31.9119 46.5271 31.5432V27.4115C46.5271 20.9246 44.8237 14.8142 41.7303 10.2055C40.569 8.47534 39.2622 7.03165 37.8491 5.89514C46.8355 8.9715 53.3095 17.4543 53.3095 27.4115ZM51.2235 40.2956L49.1884 33.7867C43.3525 32.6894 36.0923 32.08 28.5 32.08C20.9076 32.08 13.6476 32.6895 7.81151 33.7867L5.77643 40.2956C12.4885 39.3275 20.3264 38.8167 28.5 38.8167C36.6735 38.8167 44.5118 39.3275 51.2235 40.2956ZM27.5481 1.82392H29.4519C30.0097 1.82392 30.4633 2.27452 30.4633 2.82851C30.4633 2.84106 30.4623 2.85343 30.4612 2.86582L30.4612 2.86587C30.4605 2.87334 30.4599 2.88081 30.4594 2.88833C30.4501 2.88833 30.4409 2.88816 30.4317 2.888L30.4316 2.888C30.4224 2.88783 30.4132 2.88767 30.4039 2.88767H29.7693H27.2308H26.5962C26.5869 2.88767 26.5777 2.88783 26.5685 2.888L26.5684 2.888C26.5592 2.88816 26.55 2.88833 26.5407 2.88833C26.5402 2.88162 26.5396 2.87495 26.539 2.86829L26.539 2.8682V2.86817V2.86814C26.5379 2.85498 26.5367 2.84184 26.5367 2.82851C26.5367 2.27463 26.9903 1.82392 27.5481 1.82392ZM29.7691 4.66044H27.2307C18.9747 4.66044 12.2578 14.8666 12.2576 27.4115V31.2942C17.1879 30.6535 22.7547 30.3071 28.4998 30.3071C34.2449 30.3071 39.8118 30.6535 44.7421 31.2942V27.4115C44.7421 14.8666 38.0253 4.66044 29.7691 4.66044ZM3.69048 27.4116C3.69048 17.4542 10.1645 8.97139 19.1509 5.89525C17.7379 7.03187 16.431 8.47567 15.2697 10.2056C12.1765 14.8142 10.4729 20.9246 10.4729 27.4116V31.5433C8.00455 31.9122 5.72233 32.3582 3.69048 32.8746V27.4116ZM51.3467 44.1373C52.4913 44.3097 53.6283 43.8906 54.3874 43.0159C55.1556 42.131 55.4078 40.9369 55.0621 39.8215L53.4926 34.7548C52.7593 34.5577 51.9878 34.3707 51.1844 34.1934L53.1281 40.4102C53.3056 40.9842 53.0756 41.4142 52.9228 41.6198C52.6642 41.9678 52.279 42.1674 51.8663 42.1674C51.7959 42.1674 51.7229 42.1617 51.6497 42.1507C44.8745 41.1293 36.8693 40.5894 28.4999 40.5894C20.1306 40.5894 12.1253 41.1291 5.3496 42.1507C4.85118 42.2262 4.3796 42.0271 4.07679 41.6197C3.92393 41.4142 3.69393 40.9837 3.87105 40.4121L5.8154 34.1934C5.01194 34.3706 4.24055 34.5576 3.50723 34.7548L1.93773 39.8215C1.59216 40.9367 1.84443 42.1311 2.61249 43.0159C3.37174 43.8906 4.50852 44.31 5.65319 44.1373C12.3302 43.1307 20.2306 42.5986 28.4999 42.5986C36.7693 42.5986 44.6696 43.1307 51.3467 44.1373Z" fill="black"/>
<path fill-rule="evenodd" clip-rule="evenodd" d="M25.6439 21.7977H31.3555C32.8974 21.7977 34.1517 23.0437 34.1517 24.5751C34.1517 26.1065 32.8974 27.3525 31.3555 27.3525H25.6439C24.1021 27.3525 22.8477 26.1065 22.8477 24.5751C22.8477 23.0437 24.102 21.7977 25.6439 21.7977ZM25.6439 25.5797H31.3555C31.9132 25.5797 32.3669 25.1291 32.3669 24.5751C32.3669 24.0211 31.9132 23.5705 31.3555 23.5705H25.6439C25.0861 23.5705 24.6325 24.0211 24.6325 24.5751C24.6325 25.1291 25.0861 25.5797 25.6439 25.5797Z" fill="black"/>
</svg>
