<svg width="46" height="46" viewBox="0 0 46 46" fill="none" xmlns="http://www.w3.org/2000/svg">
<path fill-rule="evenodd" clip-rule="evenodd" d="M46 7.66655C46 8.09015 45.6568 8.43338 45.2332 8.43338H43.6999V13.0333H45.2332C45.6568 13.0333 46 13.3765 46 13.8001C46 14.2234 45.6568 14.5666 45.2332 14.5666H43.6999V19.1665H45.2332C45.6568 19.1665 46 19.5098 46 19.9334C46 20.3566 45.6568 20.6999 45.2332 20.6999H43.6999V25.3001H45.2332C45.6568 25.3001 46 25.6434 46 26.0666C46 26.4902 45.6568 26.8335 45.2332 26.8335H43.6999V31.4334H45.2332C45.6568 31.4334 46 31.7766 46 32.1999C46 32.6235 45.6568 32.9667 45.2332 32.9667H43.6999V37.5666H45.2332C45.6568 37.5666 46 37.9099 46 38.3335C46 38.7567 45.6568 39.0999 45.2332 39.0999H43.6999V39.8668C43.6974 41.9827 41.9827 43.6974 39.8668 43.6999H39.0999V45.2332C39.0999 45.6568 38.7567 46 38.3335 46C37.9099 46 37.5666 45.6568 37.5666 45.2332V43.6999H32.9667V45.2332C32.9667 45.6568 32.6235 46 32.1999 46C31.7766 46 31.4334 45.6568 31.4334 45.2332V43.6999H26.8335V45.2332C26.8335 45.6568 26.4902 46 26.0666 46C25.6434 46 25.3001 45.6568 25.3001 45.2332V43.6999H20.6999V45.2332C20.6999 45.6568 20.3566 46 19.9334 46C19.5098 46 19.1665 45.6568 19.1665 45.2332V43.6999H14.5666V45.2332C14.5666 45.6568 14.2234 46 13.8001 46C13.3765 46 13.0333 45.6568 13.0333 45.2332V43.6999H8.43338V45.2332C8.43338 45.6568 8.09015 46 7.66655 46C7.2433 46 6.90007 45.6568 6.90007 45.2332V43.6999H6.13324C4.01735 43.6974 2.3026 41.9827 2.30014 39.8668V39.0999H0.76683C0.343231 39.0999 0 38.7567 0 38.3335C0 37.9099 0.343231 37.5666 0.76683 37.5666H2.30014V32.9667H0.76683C0.343231 32.9667 0 32.6235 0 32.1999C0 31.7766 0.343231 31.4334 0.76683 31.4334H2.30014V26.8335H0.76683C0.343231 26.8335 0 26.4902 0 26.0666C0 25.6434 0.343231 25.3001 0.76683 25.3001H2.30014V20.6999H0.76683C0.343231 20.6999 0 20.3566 0 19.9334C0 19.5098 0.343231 19.1665 0.76683 19.1665H2.30014V14.5666H0.76683C0.343231 14.5666 0 14.2234 0 13.8001C0 13.3765 0.343231 13.0333 0.76683 13.0333H2.30014V8.43338H0.76683C0.343231 8.43338 0 8.09015 0 7.66655C0 7.2433 0.343231 6.90007 0.76683 6.90007H2.30014V6.13324C2.3026 4.01735 4.01735 2.3026 6.13324 2.30014H6.90007V0.76683C6.90007 0.343231 7.2433 0 7.66655 0C8.09015 0 8.43338 0.343231 8.43338 0.76683V2.30014H13.0333V0.76683C13.0333 0.343231 13.3765 0 13.8001 0C14.2234 0 14.5666 0.343231 14.5666 0.76683V2.30014H19.1665V0.76683C19.1665 0.343231 19.5098 0 19.9334 0C20.3566 0 20.6999 0.343231 20.6999 0.76683V2.30014H25.3001V0.76683C25.3001 0.343231 25.6434 0 26.0666 0C26.4902 0 26.8335 0.343231 26.8335 0.76683V2.30014H31.4334V0.76683C31.4334 0.343231 31.7766 0 32.1999 0C32.6235 0 32.9667 0.343231 32.9667 0.76683V2.30014H37.5666V0.76683C37.5666 0.343231 37.9099 0 38.3335 0C38.7567 0 39.0999 0.343231 39.0999 0.76683V2.30014H39.8668C41.9827 2.3026 43.6974 4.01735 43.6999 6.13324V6.90007H45.2332C45.6568 6.90007 46 7.2433 46 7.66655ZM40.6332 13.0333H42.1665V8.43338H40.6332C40.21 8.43338 39.8668 8.09015 39.8668 7.66655C39.8668 7.2433 40.21 6.90007 40.6332 6.90007H42.1665V6.13324C42.1665 4.86314 41.1369 3.83345 39.8668 3.83345H39.0999V5.36676C39.0999 5.79001 38.7567 6.13324 38.3335 6.13324C37.9099 6.13324 37.5666 5.79001 37.5666 5.36676V3.83345H32.9667V5.36676C32.9667 5.79001 32.6235 6.13324 32.1999 6.13324C31.7766 6.13324 31.4334 5.79001 31.4334 5.36676V3.83345H26.8335V5.36676C26.8335 5.79001 26.4902 6.13324 26.0666 6.13324C25.6434 6.13324 25.3001 5.79001 25.3001 5.36676V3.83345H20.6999V5.36676C20.6999 5.79001 20.3566 6.13324 19.9334 6.13324C19.5098 6.13324 19.1665 5.79001 19.1665 5.36676V3.83345H14.5666V5.36676C14.5666 5.79001 14.2234 6.13324 13.8001 6.13324C13.3765 6.13324 13.0333 5.79001 13.0333 5.36676V3.83345H8.43338V5.36676C8.43338 5.79001 8.09015 6.13324 7.66655 6.13324C7.2433 6.13324 6.90007 5.79001 6.90007 5.36676V3.83345H6.13324C4.86314 3.83345 3.83345 4.86314 3.83345 6.13324V6.90007H5.36676C5.79001 6.90007 6.13324 7.2433 6.13324 7.66655C6.13324 8.09015 5.79001 8.43338 5.36676 8.43338H3.83345V13.0333H5.36676C5.79001 13.0333 6.13324 13.3765 6.13324 13.8001C6.13324 14.2234 5.79001 14.5666 5.36676 14.5666H3.83345V19.1665H5.36676C5.79001 19.1665 6.13324 19.5098 6.13324 19.9334C6.13324 20.3566 5.79001 20.6999 5.36676 20.6999H3.83345V25.3001H5.36676C5.79001 25.3001 6.13324 25.6434 6.13324 26.0666C6.13324 26.4902 5.79001 26.8335 5.36676 26.8335H3.83345V31.4334H5.36676C5.79001 31.4334 6.13324 31.7766 6.13324 32.1999C6.13324 32.6235 5.79001 32.9667 5.36676 32.9667H3.83345V37.5666H5.36676C5.79001 37.5666 6.13324 37.9099 6.13324 38.3335C6.13324 38.7567 5.79001 39.0999 5.36676 39.0999H3.83345V39.8668C3.83345 41.1369 4.86314 42.1665 6.13324 42.1665H6.90007V40.6332C6.90007 40.21 7.2433 39.8668 7.66655 39.8668C8.09015 39.8668 8.43338 40.21 8.43338 40.6332V42.1665H13.0333V40.6332C13.0333 40.21 13.3765 39.8668 13.8001 39.8668C14.2234 39.8668 14.5666 40.21 14.5666 40.6332V42.1665H19.1665V40.6332C19.1665 40.21 19.5098 39.8668 19.9334 39.8668C20.3566 39.8668 20.6999 40.21 20.6999 40.6332V42.1665H25.3001V40.6332C25.3001 40.21 25.6434 39.8668 26.0666 39.8668C26.4902 39.8668 26.8335 40.21 26.8335 40.6332V42.1665H31.4334V40.6332C31.4334 40.21 31.7766 39.8668 32.1999 39.8668C32.6235 39.8668 32.9667 40.21 32.9667 40.6332V42.1665H37.5666V40.6332C37.5666 40.21 37.9099 39.8668 38.3335 39.8668C38.7567 39.8668 39.0999 40.21 39.0999 40.6332V42.1665H39.8668C41.1369 42.1665 42.1665 41.1369 42.1665 39.8668V39.0999H40.6332C40.21 39.0999 39.8668 38.7567 39.8668 38.3335C39.8668 37.9099 40.21 37.5666 40.6332 37.5666H42.1665V32.9667H40.6332C40.21 32.9667 39.8668 32.6235 39.8668 32.1999C39.8668 31.7766 40.21 31.4334 40.6332 31.4334H42.1665V26.8335H40.6332C40.21 26.8335 39.8668 26.4902 39.8668 26.0666C39.8668 25.6434 40.21 25.3001 40.6332 25.3001H42.1665V20.6999H40.6332C40.21 20.6999 39.8668 20.3566 39.8668 19.9334C39.8668 19.5098 40.21 19.1665 40.6332 19.1665H42.1665V14.5666H40.6332C40.21 14.5666 39.8668 14.2234 39.8668 13.8001C39.8668 13.3765 40.21 13.0333 40.6332 13.0333Z" fill="black"/>
</svg>
