<svg width="21" height="20" viewBox="0 0 21 20" fill="none" xmlns="http://www.w3.org/2000/svg">
<path d="M10.4462 19.9998C15.969 19.9998 20.4461 15.5227 20.4461 9.99988C20.4461 4.4771 15.969 0 10.4462 0C4.92339 0 0.446289 4.4771 0.446289 9.99988C0.446289 15.5227 4.92339 19.9998 10.4462 19.9998Z" fill="#0460F5"/>
<path fill-rule="evenodd" clip-rule="evenodd" d="M15.2088 6C15.4201 6 15.6103 6.0824 15.7517 6.2168L10.5 10.8L5.24986 6.2184C5.39129 6.0832 5.58143 6 5.79121 6H15.2088ZM9.13914 10.3872L10.5 11.6L11.8609 10.3872L15.7494 13.7832C15.6087 13.9168 15.4186 14 15.2088 14H5.79121C5.58064 14 5.38971 13.9168 5.24829 13.7832L9.13914 10.3872ZM5 6.7024V13.3488L8.79736 10.0632L5 6.7024ZM16 13.3488L12.2026 10.0632L16 6.7V13.3488Z" fill="white"/>
</svg>
