<svg width="36" height="48" viewBox="0 0 36 48" fill="none" xmlns="http://www.w3.org/2000/svg">
<path fill-rule="evenodd" clip-rule="evenodd" d="M19.183 3.44643C25.7365 -0.00126672 34.1593 3.2701 34.514 3.41193C34.8076 3.52847 35 3.80983 35 4.1234V27.1234C35 27.3779 34.8725 27.6156 34.6608 27.7574C34.4483 27.9016 34.1794 27.9307 33.9406 27.8356C33.8602 27.8042 25.8208 24.6877 19.9079 27.8011C17.6662 28.9803 14.8511 29.372 12.1025 29.372C8.12995 29.372 4.30186 28.5555 2.54545 28.1208V46.2333C2.54545 46.6573 2.20005 47 1.77273 47C1.34541 47 1 46.6573 1 46.2333V27.1234V26.3V4.1234C1 4.1188 1.00155 4.11458 1.00309 4.11037C1.00464 4.10615 1.00618 4.10193 1.00618 4.09733C1.00582 4.09235 1.00446 4.08769 1.00311 4.08306C1.00155 4.07772 1 4.07241 1 4.06667V1.76667C1 1.3427 1.34541 1 1.77273 1C2.20005 1 2.54545 1.3427 2.54545 1.76667V3.53613C4.87523 4.12953 13.9903 6.18113 19.183 3.44643ZM19.183 26.4457C24.4554 23.6696 30.9355 25.2474 33.4545 26.0432V4.66237C31.6209 4.04597 24.9816 2.13083 19.9079 4.80113C14.4308 7.6838 5.52277 5.8576 2.54545 5.12083V26.3V26.5361C4.87909 27.1295 13.9911 29.1796 19.183 26.4457Z" fill="#221E1E"/>
<path d="M34.514 3.41193L34.3469 3.82977L34.348 3.8302L34.514 3.41193ZM19.183 3.44643L18.9735 3.04818L18.9734 3.04827L19.183 3.44643ZM34.6608 27.7574L34.4103 27.3836L34.4082 27.385L34.6608 27.7574ZM33.9406 27.8356L34.107 27.4175L34.1045 27.4165L33.9406 27.8356ZM19.9079 27.8011L20.1174 28.1994L20.1175 28.1993L19.9079 27.8011ZM2.54545 28.1208L2.65356 27.684L2.09545 27.5459V28.1208H2.54545ZM1.00309 4.11037L0.580575 3.95551L1.00309 4.11037ZM1.00618 4.09733H1.45618V4.08116L1.45502 4.06502L1.00618 4.09733ZM1.00311 4.08306L1.43506 3.95688L1.43506 3.95688L1.00311 4.08306ZM2.54545 3.53613H2.09545V3.88588L2.43438 3.97221L2.54545 3.53613ZM33.4545 26.0432L33.319 26.4723L33.9045 26.6572V26.0432H33.4545ZM19.183 26.4457L18.9734 26.0475L18.9734 26.0475L19.183 26.4457ZM33.4545 4.66237H33.9045V4.33889L33.5979 4.23582L33.4545 4.66237ZM19.9079 4.80113L19.6983 4.40292L19.6983 4.40292L19.9079 4.80113ZM2.54545 5.12083L2.65355 4.68401L2.09545 4.5459V5.12083H2.54545ZM2.54545 26.5361H2.09545V26.886L2.43456 26.9723L2.54545 26.5361ZM34.681 2.9941C34.4843 2.91543 32.2524 2.04857 29.2338 1.63723C26.222 1.22681 22.3689 1.2619 18.9735 3.04818L19.3926 3.84468C22.5506 2.18326 26.1857 2.13019 29.1123 2.52899C32.0321 2.92686 34.1889 3.76661 34.3469 3.82976L34.681 2.9941ZM35.45 4.1234C35.45 3.62323 35.143 3.17745 34.6799 2.99367L34.348 3.8302C34.4722 3.87949 34.55 3.99643 34.55 4.1234H35.45ZM35.45 27.1234V4.1234H34.55V27.1234H35.45ZM34.9112 28.1313C35.2469 27.9064 35.45 27.5289 35.45 27.1234H34.55C34.55 27.2269 34.4981 27.3248 34.4103 27.3836L34.9112 28.1313ZM33.7741 28.2537C34.1512 28.4039 34.5771 28.3579 34.9134 28.1299L34.4082 27.385C34.3194 27.4452 34.2075 27.4575 34.107 27.4176L33.7741 28.2537ZM20.1175 28.1993C22.951 26.7074 26.3264 26.696 29.0478 27.0845C30.402 27.2779 31.5783 27.5679 32.4206 27.8114C32.8414 27.9331 33.178 28.043 33.4108 28.123C33.5272 28.163 33.6176 28.1955 33.6795 28.2182C33.7104 28.2296 33.7343 28.2385 33.7506 28.2448C33.7588 28.2479 33.7651 28.2503 33.7696 28.252C33.7718 28.2528 33.7735 28.2535 33.7747 28.254C33.7753 28.2542 33.7758 28.2544 33.7761 28.2545C33.7763 28.2546 33.7764 28.2546 33.7765 28.2547C33.7766 28.2547 33.7766 28.2547 33.7767 28.2547L34.1045 27.4165C34.047 27.3941 31.9813 26.5942 29.175 26.1936C26.3784 25.7943 22.7777 25.7815 19.6982 27.403L20.1175 28.1993ZM12.1025 29.822C14.883 29.822 17.7825 29.4275 20.1174 28.1994L19.6984 27.4029C17.5498 28.533 14.8192 28.922 12.1025 28.922V29.822ZM2.43734 28.5577C4.20792 28.9959 8.07674 29.822 12.1025 29.822V28.922C8.18317 28.922 4.39581 28.1152 2.65356 27.684L2.43734 28.5577ZM2.99545 46.2333V28.1208H2.09545V46.2333H2.99545ZM1.77273 47.45C2.44523 47.45 2.99545 46.9092 2.99545 46.2333H2.09545C2.09545 46.4054 1.95486 46.55 1.77273 46.55V47.45ZM0.55 46.2333C0.55 46.9092 1.10023 47.45 1.77273 47.45V46.55C1.59059 46.55 1.45 46.4054 1.45 46.2333H0.55ZM0.55 27.1234V46.2333H1.45V27.1234H0.55ZM0.55 26.3V27.1234H1.45V26.3H0.55ZM0.55 4.1234V26.3H1.45V4.1234H0.55ZM0.580575 3.95551C0.580477 3.95578 0.578362 3.9615 0.576125 3.96804C0.573712 3.97511 0.570076 3.98622 0.56639 3.99993C0.558969 4.02754 0.55 4.07042 0.55 4.1234H1.45C1.45 4.17178 1.4418 4.21025 1.43554 4.23355C1.43006 4.25393 1.42365 4.27056 1.42561 4.26522L0.580575 3.95551ZM0.556182 4.09733C0.556182 4.04896 0.564378 4.01049 0.570639 3.98719C0.576117 3.96681 0.582529 3.95018 0.580575 3.95551L1.42561 4.26522C1.42571 4.26495 1.42782 4.25924 1.43006 4.25269C1.43247 4.24562 1.43611 4.23451 1.43979 4.2208C1.44721 4.19319 1.45618 4.15031 1.45618 4.09733H0.556182ZM0.571161 4.20923C0.572395 4.21346 0.569554 4.20412 0.566867 4.19264C0.563808 4.17958 0.559353 4.15756 0.557343 4.12965L1.45502 4.06502C1.45265 4.03212 1.44734 4.00528 1.44317 3.98748C1.43937 3.97127 1.43518 3.95729 1.43506 3.95688L0.571161 4.20923ZM0.55 4.06667C0.55 4.11012 0.5559 4.14575 0.561001 4.1695C0.56559 4.19087 0.571149 4.20919 0.571161 4.20923L1.43506 3.95688C1.43351 3.95158 1.43751 3.96458 1.44094 3.98053C1.44487 3.99886 1.45 4.02896 1.45 4.06667H0.55ZM0.55 1.76667V4.06667H1.45V1.76667H0.55ZM1.77273 0.55C1.10023 0.55 0.55 1.09084 0.55 1.76667H1.45C1.45 1.59456 1.59059 1.45 1.77273 1.45V0.55ZM2.99545 1.76667C2.99545 1.09084 2.44523 0.55 1.77273 0.55V1.45C1.95486 1.45 2.09545 1.59456 2.09545 1.76667H2.99545ZM2.99545 3.53613V1.76667H2.09545V3.53613H2.99545ZM18.9734 3.04827C16.4945 4.35372 13.0258 4.53448 9.82483 4.29062C6.64218 4.04816 3.809 3.3936 2.65652 3.10006L2.43438 3.97221C3.61168 4.27207 6.50093 4.94001 9.75646 5.18802C12.9937 5.43464 16.6788 5.27385 19.3927 3.84459L18.9734 3.04827ZM33.5901 25.6141C32.3094 25.2095 30.0207 24.6054 27.3767 24.4557C24.7349 24.3061 21.7068 24.6082 18.9734 26.0475L19.3927 26.8438C21.9316 25.507 24.7797 25.21 27.3258 25.3542C29.8697 25.4983 32.0806 26.081 33.319 26.4723L33.5901 25.6141ZM33.0045 4.66237V26.0432H33.9045V4.66237H33.0045ZM20.1174 5.19935C22.5469 3.92074 25.3765 3.72924 27.8568 3.9475C30.3317 4.1653 32.413 4.78699 33.3112 5.08891L33.5979 4.23582C32.6624 3.92134 30.5072 3.27726 27.9357 3.05097C25.3695 2.82514 22.3426 3.01122 19.6983 4.40292L20.1174 5.19935ZM2.43736 5.55766C3.94009 5.92952 6.94119 6.57701 10.2635 6.76753C13.5724 6.95728 17.269 6.69852 20.1174 5.19935L19.6983 4.40292C17.0696 5.78641 13.5737 6.05588 10.315 5.86901C7.06969 5.6829 4.12814 5.04891 2.65355 4.68401L2.43736 5.55766ZM2.99545 26.3V5.12083H2.09545V26.3H2.99545ZM2.99545 26.5361V26.3H2.09545V26.5361H2.99545ZM18.9734 26.0475C16.4949 27.3526 13.0271 27.5335 9.82653 27.2899C6.64427 27.0478 3.81088 26.3936 2.65635 26.1L2.43456 26.9723C3.61366 27.2721 6.5031 27.9396 9.75823 28.1874C12.995 28.4337 16.6792 28.2727 19.3927 26.8438L18.9734 26.0475Z" fill="#221E1E"/>
</svg>
