<svg width="44" height="46" viewBox="0 0 44 46" fill="none" xmlns="http://www.w3.org/2000/svg">
<path d="M19.7334 3.95064H23.4668C23.8666 3.95064 24.1905 3.62541 24.1905 3.22434C24.1905 2.82319 23.8666 2.49805 23.4668 2.49805H19.7334C19.3336 2.49805 19.0098 2.82328 19.0098 3.22434C19.0098 3.62541 19.3336 3.95064 19.7334 3.95064Z" fill="#221E1E"/>
<path fill-rule="evenodd" clip-rule="evenodd" d="M40.6317 7.01563L43.1218 17.3124C43.2069 17.6641 43.0209 18.025 42.686 18.1585L35.572 20.9949V26.0709C35.572 26.4721 35.2481 26.7972 34.8483 26.7972C34.4486 26.7972 34.1246 26.4721 34.1246 26.0709V20.5019V17.3873V11.7591C34.1246 11.6267 34.1607 11.4967 34.229 11.3833L37.8786 5.32567C37.6429 5.13565 37.3698 4.96414 37.0541 4.82946C35.5973 4.2081 31.278 2.55327 29.2894 1.79499C28.8086 6.06984 25.4946 9.5017 21.6256 9.5017C17.7451 9.5017 14.4234 6.04954 13.958 1.75707C12.0179 2.49649 7.57513 4.19759 6.09351 4.82955C5.77778 4.96423 5.50466 5.13574 5.26905 5.32576L8.91871 11.3835C8.98701 11.4969 9.02308 11.6268 9.02308 11.7593V17.3875V20.502V41.5946H13.9264C14.3261 41.5946 14.65 41.9197 14.65 42.3209C14.65 42.722 14.3261 43.0472 13.9264 43.0472H9.02308V44.5473H34.1244V43.0472H16.3386C15.9388 43.0472 15.6149 42.7221 15.6149 42.3209C15.6149 41.9197 15.9388 41.5946 16.3386 41.5946H34.1243V28.492C34.1243 28.0909 34.4481 27.7657 34.8479 27.7657C35.2477 27.7657 35.5716 28.0908 35.5716 28.492V42.321V45.2737C35.5716 45.6749 35.2477 46 34.8479 46H8.29924C7.89954 46 7.57557 45.6749 7.57557 45.2737V42.321V20.9951L0.461561 18.1588C0.126315 18.0251 -0.0597041 17.6642 0.0254277 17.3124L0.746049 14.3329V14.3328L2.51565 7.01545L2.51824 7.00512L2.52146 6.99281L2.52155 6.99254C2.59004 6.7293 3.23779 4.46919 5.52713 3.49259C7.45742 2.6692 14.0632 0.162975 14.3677 0.0474407L14.3694 0.0468086C14.3726 0.0456136 14.3758 0.0446221 14.379 0.0436311L14.3875 0.0408789L14.3905 0.0398538L14.3905 0.0398466L14.3905 0.0398437L14.3905 0.0398425C14.4013 0.0361487 14.4119 0.0324935 14.4229 0.0292891C14.4326 0.0265703 14.4425 0.0241729 14.4522 0.0217929L14.4522 0.0217922L14.4522 0.0217888L14.4539 0.0213828L14.4605 0.0197747L14.4605 0.0197712C14.4699 0.0174898 14.4792 0.0152032 14.4887 0.0133867C14.5013 0.0109614 14.5139 0.00925452 14.5266 0.00754779L14.5266 0.00754688L14.5364 0.00611955C14.5429 0.00514118 14.5495 0.0041628 14.5561 0.00350391C14.5792 0.00125781 14.6022 0 14.6254 0H28.522H28.6257C28.7982 0 28.9565 0.0608242 29.0808 0.161898C30.4456 0.680566 35.8965 2.75748 37.6201 3.49259C40.0013 4.50827 40.607 6.91375 40.6317 7.01563ZM7.57566 19.4319L7.57575 19.4319H7.57566V19.4319ZM7.57566 19.4319L1.58045 17.0416L1.95249 15.5034L7.57566 17.8704V19.4319ZM7.57575 11.9617V16.2951L2.2983 14.0738L3.92162 7.36144C3.92368 7.35326 4.02224 6.9787 4.28811 6.50487L7.57575 11.9617ZM15.3794 1.45259C15.714 5.42872 18.7652 8.04901 21.6255 8.04901C24.4859 8.04901 27.5371 5.42881 27.8719 1.45259H15.3794ZM35.5718 11.9617L38.8595 6.50469C39.0336 6.81492 39.1361 7.08247 39.1863 7.23161L39.1867 7.23296L39.193 7.25204L39.1994 7.27177L39.2016 7.27851L39.2095 7.30421L39.2123 7.31328L39.2173 7.33035L39.2194 7.33754L39.2221 7.3476L39.2237 7.35299L39.225 7.3582L40.8491 14.0738L35.5717 16.2952V11.9617H35.5718ZM35.5718 17.8704V19.4319L41.5669 17.0417L41.195 15.5034L35.5718 17.8704Z" fill="#221E1E"/>
</svg>
