<svg width="41" height="46" viewBox="0 0 41 46" fill="none" xmlns="http://www.w3.org/2000/svg">
<path fill-rule="evenodd" clip-rule="evenodd" d="M40.9321 19.0031L39.0726 7.73006C38.7716 5.90593 37.4248 4.45832 35.6413 4.04244L28.5237 2.38285L27.1626 0.320117C27.0489 0.147864 26.8674 0.0335361 26.6643 0.0062768C26.6331 0.00206238 26.6019 0.000717349 26.5707 0.000807018V0H14.4288V0.000538012C14.3977 0.000538012 14.3664 0.00197271 14.3352 0.0062768C14.1321 0.0335361 13.9505 0.147953 13.8369 0.320117L12.4759 2.38294L5.35814 4.04262C3.57464 4.4585 2.22786 5.90593 1.92683 7.73024L0.0673695 19.0031C0.0123479 19.3364 0.194452 19.6633 0.50488 19.7888L7.64642 22.6751V45.1915C7.64642 45.5886 7.96493 45.9104 8.35789 45.9104H32.6417C33.0346 45.9104 33.3532 45.5887 33.3532 45.1915V22.6751L40.4947 19.7888C40.805 19.6633 40.9871 19.3363 40.9321 19.0031ZM27.2418 3.0317L24.1427 8.04175C24.1396 8.04686 24.1314 8.05995 24.1105 8.06372C24.0896 8.06704 24.0775 8.05762 24.073 8.05386L21.6082 6.06151L26.4288 1.79956L27.2418 3.0317ZM20.4997 5.13102L24.6771 1.43766H16.3223L20.4997 5.13102ZM21.3061 7.65851V14.5208C21.3061 14.5471 21.2849 14.5686 21.2587 14.5686H19.741C19.7148 14.5686 19.6936 14.5471 19.6936 14.5208V7.65851L20.4997 7.00671L21.3061 7.65851ZM19.3914 6.06142L14.5708 1.79947L13.7579 3.0317L16.857 8.04175C16.8601 8.04677 16.8682 8.05995 16.8892 8.06363C16.9102 8.06686 16.9222 8.05744 16.9267 8.05377L19.3914 6.06142ZM7.64642 21.1266L1.56511 18.6687L1.80002 17.2451L7.64642 19.6081V21.1266ZM9.06927 44.4727H31.9301V42.8433H9.06927V44.4727ZM32.6416 13.0351C32.2487 13.0351 31.9301 13.3569 31.9301 13.754V41.4056H9.06927V13.7539C9.06927 13.3569 8.75076 13.035 8.3578 13.035C7.96484 13.035 7.64633 13.3568 7.64633 13.7539V18.0595L2.03945 15.7933L3.33033 7.96652C3.53622 6.71842 4.45783 5.72803 5.67807 5.44333L12.5765 3.83477L15.6501 8.80384C15.8722 9.16297 16.2367 9.40965 16.65 9.48084C16.7321 9.49492 16.8144 9.50191 16.8965 9.50191C17.2281 9.50191 17.5531 9.38848 17.8154 9.17642L18.2704 8.80878V14.5208C18.2704 15.34 18.9299 16.0064 19.7407 16.0064H21.2584C22.0692 16.0064 22.7287 15.34 22.7287 14.5208V8.80878L23.1837 9.17651C23.4462 9.38857 23.7711 9.502 24.1026 9.502C24.1847 9.502 24.267 9.4951 24.3491 9.48093C24.7623 9.40982 25.1268 9.16315 25.349 8.80384L28.4226 3.83486L35.3212 5.44333C36.5414 5.72803 37.4631 6.71833 37.6689 7.96652L38.96 15.7933L33.3528 18.0595V13.7539C33.3531 13.3569 33.0346 13.0351 32.6416 13.0351ZM33.3531 19.608V21.1266L39.4345 18.6688L39.1996 17.2452L33.3531 19.608Z" fill="black"/>
</svg>
