<svg width="40" height="46" viewBox="0 0 40 46" fill="none" xmlns="http://www.w3.org/2000/svg">
<path d="M30.2707 13.1165C29.7844 13.1165 29.3896 13.519 29.3896 14.0149C29.3896 14.5108 29.7844 14.9133 30.2707 14.9133C30.757 14.9133 31.1514 14.5108 31.1514 14.0149C31.1514 13.519 30.757 13.1165 30.2707 13.1165Z" fill="black"/>
<path d="M17.9364 13.1165C18.4227 13.1165 18.8174 12.7139 18.8174 12.218C18.8174 11.7221 18.4227 11.3196 17.9364 11.3196C17.4501 11.3196 17.0557 11.7221 17.0557 12.218C17.0557 12.7139 17.4501 13.1165 17.9364 13.1165Z" fill="black"/>
<path fill-rule="evenodd" clip-rule="evenodd" d="M10.8879 0H26.7463C27.2329 0 27.6273 0.402191 27.6273 0.898438V1.79688H39.0804C39.567 1.79688 39.9614 2.19907 39.9614 2.69531V28.71C39.9614 29.9092 39.5037 31.0372 38.6722 31.8865L27.4132 43.3665C23.9699 46.8784 18.3969 46.877 14.9539 43.3665C14.6586 43.0653 14.386 42.7435 14.1365 42.4052C10.7386 45.0138 5.80773 44.8208 2.61975 41.5696C-0.814655 38.0667 -0.814655 32.3673 2.61975 28.8644L10.0072 21.3312V0.898438C10.0072 0.402191 10.4016 0 10.8879 0ZM32.0323 3.5934V9.52309H34.6754V3.5934H32.0323ZM30.2705 9.52309H27.6273V3.5934H30.2705V9.52309ZM20.5792 28.8258C20.5792 30.144 20.8384 31.446 21.3336 32.6512L25.0919 28.8195C25.5906 28.3103 25.8652 27.6333 25.8652 26.9131V20.0225C22.659 21.6924 20.5792 25.0836 20.5792 28.8258ZM25.8652 7.72621H24.1034V1.79688H25.8652V7.72621ZM19.6981 1.79688V7.72621H22.3413V1.79688H19.6981ZM15.2932 7.72621V1.79688H17.936V7.72621H15.2932ZM13.5311 7.72621V1.79688H11.769V7.72621H13.5311ZM3.86562 40.2991C1.11851 37.4968 1.11851 32.9372 3.86562 30.1349L11.5112 22.3385C11.6764 22.17 11.7693 21.9415 11.7693 21.7032V9.52309H25.8655V11.3196H21.4603C20.9736 11.3196 20.5792 11.7222 20.5792 12.218C20.5792 12.7143 20.9736 13.1165 21.4603 13.1165H25.8655V18.0446C21.6251 19.846 18.8174 24.0988 18.8174 28.8258C18.8174 30.6265 19.2266 32.4034 20.0045 34.0066C20.0045 34.0066 13.7562 40.377 13.7128 40.4185C10.9619 43.0976 6.58932 43.0766 3.86562 40.2991ZM16.1997 42.0957C18.9551 44.905 23.4134 44.905 26.1674 42.096L32.3386 35.8034C31.5608 34.2003 31.1515 32.4234 31.1515 30.6227C31.1515 25.8957 33.9592 21.6429 38.1997 19.8411V14.9134H33.7944C33.3081 14.9134 32.9133 14.5112 32.9133 14.0149C32.9133 13.5187 33.3081 13.1165 33.7944 13.1165H38.1997V11.3196H27.6273V26.9131C27.6273 28.1123 27.1696 29.2406 26.3381 30.0896L15.4484 41.193C15.6735 41.5131 15.9247 41.8152 16.1997 42.0957ZM37.426 30.6164L33.6677 34.4481C33.1725 33.2429 32.9133 31.9405 32.9133 30.6227C32.9133 26.8805 34.9934 23.4892 38.1993 21.8194V28.71C38.1993 29.4298 37.9247 30.1068 37.426 30.6164ZM36.4375 9.52309H38.1993V3.5934H36.4375V9.52309Z" fill="black"/>
</svg>
