<svg width="39" height="46" viewBox="0 0 39 46" fill="none" xmlns="http://www.w3.org/2000/svg">
<path fill-rule="evenodd" clip-rule="evenodd" d="M38.1661 11.3161L38.994 35.4354C39.015 36.0456 38.6483 36.613 38.081 36.8521L38.211 39.5509C38.2403 40.1602 37.8807 40.7347 37.3163 40.9809L31.8606 43.3598V44.4248C31.8606 45.244 31.1865 45.9104 30.3579 45.9104H8.64198C7.81336 45.9104 7.1393 45.244 7.1393 44.4248V43.3598L1.68347 40.9809C1.11906 40.7347 0.759531 40.1601 0.788827 39.5509L0.918797 36.8521C0.351392 36.6131 -0.0152988 36.0457 0.00574303 35.4353L0.833631 11.3161C0.90492 9.24125 2.20335 7.38475 4.14165 6.58625L7.33285 5.27162L9.89388 1.08651C10.3039 0.416331 11.0509 0 11.8432 0H27.1566C27.949 0 28.6958 0.416331 29.1058 1.08651L31.6668 5.27162L34.858 6.58625C36.7964 7.38466 38.0949 9.24134 38.1661 11.3161ZM27.837 1.79512L27.8268 1.78118L18.8254 8.62675C19.3149 8.85128 19.8967 8.81855 20.3588 8.52775L26.9583 4.37574C27.586 3.98075 28.3708 3.91386 29.0577 4.19676L29.3945 4.33557L27.8618 1.83076C27.8542 1.81827 27.8456 1.8067 27.837 1.79512ZM25.8935 1.43766L19.7269 6.12733L13.2046 1.43766H25.8935ZM11.1855 1.7636C11.1689 1.7853 11.1524 1.80718 11.1381 1.83067L9.60537 4.33548L9.94222 4.19667C10.6291 3.91377 11.4139 3.98066 12.0416 4.37565L17.508 7.8148L18.5254 7.04114L11.1855 1.7636ZM2.2701 39.6654C2.25205 39.6575 2.24053 39.6389 2.24144 39.6193L2.34647 37.439L5.68079 38.8084L5.629 40.5331C5.62338 40.7485 5.64877 40.9594 5.70201 41.1618L2.2701 39.6654ZM30.4063 42.904V42.8995V42.8433H8.59345V42.8995V42.904V44.4247C8.59345 44.451 8.61513 44.4726 8.64188 44.4726H30.3579C30.3847 44.4726 30.4063 44.4511 30.4063 44.4247V42.904ZM36.7294 39.6655L33.2973 41.162C33.3507 40.9589 33.3761 40.7469 33.3705 40.5303L33.3188 38.8085L36.6532 37.4391L36.7583 39.6194C36.7593 39.6389 36.7476 39.6576 36.7294 39.6655ZM33.2727 37.2706L37.5108 35.53C37.5293 35.5224 37.5412 35.504 37.5406 35.4842L36.7127 11.3649C36.6608 9.8509 35.7132 8.49601 34.2988 7.91335L28.4983 5.52386C28.25 5.42163 27.9659 5.44575 27.739 5.5886L21.7782 9.3389V19.8881C21.7782 20.2851 21.4527 20.6069 21.051 20.6069C20.6494 20.6069 20.3239 20.285 20.3239 19.8881V10.0987C19.7856 10.2469 19.2142 10.2469 18.6759 10.0987V19.8881C18.6759 20.2851 18.3503 20.6069 17.9487 20.6069C17.5471 20.6069 17.2216 20.285 17.2216 19.8881V9.33881L11.2609 5.58851C11.0337 5.44575 10.7498 5.42154 10.5015 5.52386L4.70098 7.91335C3.28655 8.49601 2.33903 9.8509 2.28706 11.3649L1.45917 35.4841C1.45854 35.504 1.47051 35.5225 1.48901 35.53L5.72704 37.2706L6.3641 16.0329C6.37608 15.6361 6.71265 15.3229 7.11245 15.3358C7.51379 15.3475 7.82951 15.6787 7.81762 16.0756L7.08288 40.5729C7.07717 40.7914 7.16016 41.0009 7.31661 41.1595C7.47297 41.3181 7.68258 41.4056 7.90669 41.4056H31.0931C31.3172 41.4056 31.5268 41.3182 31.6832 41.1595C31.8396 41.0009 31.9226 40.7915 31.9168 40.57L31.1822 16.0756C31.1702 15.6788 31.4859 15.3475 31.8873 15.3358C32.2857 15.3228 32.6238 15.6361 32.6357 16.0329L33.2727 37.2706Z" fill="black"/>
<path fill-rule="evenodd" clip-rule="evenodd" d="M25.6493 28.2208C26.3954 33.3848 28.6327 37.1167 28.6552 37.1539C28.79 37.376 28.7935 37.6524 28.6645 37.8779C28.5354 38.1033 28.2937 38.2425 28.0318 38.2425H10.9693C10.7072 38.2425 10.4656 38.1033 10.3366 37.8779C10.2075 37.6524 10.211 37.3759 10.3458 37.1539C10.368 37.1171 12.6079 33.3683 13.3517 28.2208C13.403 27.8666 13.7098 27.6036 14.0716 27.6036H24.9295C25.2914 27.6036 25.5982 27.8666 25.6493 28.2208ZM14.6947 29.0414C14.1003 32.5631 12.9008 35.3548 12.179 36.8049H26.8222C26.1005 35.3548 24.9008 32.5631 24.3065 29.0414H14.6947Z" fill="black"/>
</svg>
