<svg width="20" height="20" viewBox="0 0 20 20" fill="none" xmlns="http://www.w3.org/2000/svg">
<path d="M9.99988 19.9999C15.5227 19.9999 19.9998 15.5228 19.9998 10C19.9998 4.47722 15.5227 0.00012207 9.99988 0.00012207C4.4771 0.00012207 0 4.47722 0 10C0 15.5228 4.4771 19.9999 9.99988 19.9999Z" fill="#41B4E6"/>
<path d="M8.02898 11.457L12.5482 14.869L14.8294 5.13126L3.1709 9.71715L6.71844 10.8922L13.1928 6.54938L8.02898 11.457Z" fill="white"/>
<path d="M6.71875 10.8922L7.69035 14.3884L8.0293 11.457L13.1931 6.54938L6.71875 10.8922Z" fill="#D2D2D7"/>
<path d="M9.49715 12.5659L7.68945 14.3884L8.0284 11.457L9.49715 12.5659Z" fill="#B9B9BE"/>
</svg>
