<svg width="18" height="20" viewBox="0 0 18 20" fill="none" xmlns="http://www.w3.org/2000/svg">
    <path d="M11.0024 0H7.00971C3.15689 0 0.0224609 3.13442 0.0224609 6.98725V9.98179C0.0224609 12.6867 1.58246 15.1414 4.01517 16.2961V19.6308C4.01517 19.9204 4.37739 20.0718 4.58316 19.8661L7.4802 16.969H11.0024C14.8552 16.969 17.9896 13.8346 17.9896 9.98179V6.98725C17.9896 3.13442 14.8552 0 11.0024 0Z"
          fill="#665CAC"/>
    <path d="M14.0297 12.4016L13.7305 10.7811C13.7058 10.6472 13.6021 10.5419 13.4686 10.5152L11.1159 10.0447C11.0066 10.0229 10.894 10.057 10.8153 10.1357L9.85946 11.0915C8.24901 10.3699 7.35521 9.47419 6.56878 7.79462L7.52153 6.84191C7.60016 6.76324 7.63432 6.65041 7.61252 6.54133L7.142 4.18858C7.11529 4.05513 7.00999 3.95134 6.87611 3.92663L5.2556 3.62752C5.21124 3.61938 5.16554 3.62023 5.12149 3.63025C4.69361 3.72745 4.30321 3.94304 3.99244 4.25388C3.45436 4.79197 3.2487 5.57715 3.39779 6.52456C3.64804 8.11544 4.42745 10.3294 5.86547 11.7732L5.88512 11.7927C7.32777 13.2297 9.54176 14.0092 11.1327 14.2595C11.3331 14.291 11.5262 14.3067 11.7113 14.3067C12.4011 14.3067 12.9791 14.089 13.4035 13.6648C13.7142 13.354 13.9299 12.9635 14.0271 12.5358C14.0369 12.4917 14.0379 12.446 14.0297 12.4016Z"
          fill="white"/>
    <path d="M7.19537 7.34152L7.69477 6.84206L7.69531 6.84152L7.19531 7.34146L7.19537 7.34152Z" fill="#E5E5E5"/>
    <rect x="10.4648" y="10.4727" width="0.464557" height="0.1" transform="rotate(-45 10.4648 10.4727)" fill="#E5E5E5"/>
    <path d="M12.3377 13.6792C12.1526 13.6792 11.9596 13.6636 11.7592 13.632C10.1683 13.3817 7.95428 12.6022 6.51159 11.1652L6.49194 11.1457C5.05392 9.70191 4.27451 7.48796 4.02426 5.89708C3.90383 5.13166 4.01517 4.47221 4.34613 3.96332C4.21938 4.04788 4.10044 4.14488 3.99147 4.25384C3.45338 4.79193 3.24773 5.57712 3.39681 6.52453C3.64706 8.1154 4.42648 10.3294 5.86449 11.7731L5.88414 11.7926C7.32679 13.2296 9.54079 14.0091 11.1317 14.2594C11.3322 14.291 11.5252 14.3066 11.7103 14.3066C12.4002 14.3066 12.9781 14.089 13.4025 13.6647C13.5114 13.5558 13.6084 13.4368 13.693 13.3101C13.3173 13.5545 12.8596 13.6792 12.3377 13.6792Z"
          fill="#E5E5E5"/>
    <path d="M9.67158 5.65634C9.48783 5.65634 9.33887 5.80531 9.33887 5.98905C9.33887 6.17279 9.48783 6.32176 9.67158 6.32176C10.4055 6.32176 11.0025 6.9188 11.0025 7.65268C11.0025 7.83396 11.1539 7.98539 11.3352 7.98539C11.5165 7.98539 11.6679 7.83396 11.6679 7.65268C11.668 6.55186 10.7724 5.65634 9.67158 5.65634Z"
          fill="white"/>
    <path d="M9.67137 4.32542C9.54829 4.32542 9.42408 4.33225 9.30213 4.3457C9.11947 4.36585 8.98774 4.53026 9.0079 4.71295C9.02805 4.89564 9.19281 5.02702 9.37515 5.00718C9.47293 4.99638 9.57257 4.99088 9.67137 4.99088C11.1391 4.99088 12.3332 6.18496 12.3332 7.65268C12.3332 7.75151 12.3277 7.85116 12.3169 7.94893C12.297 8.12909 12.4309 8.29634 12.6111 8.31618C12.7913 8.33603 12.9584 8.20219 12.9783 8.02195C12.9918 7.9 12.9986 7.77579 12.9986 7.65268C12.9986 5.81806 11.506 4.32542 9.67137 4.32542Z"
          fill="white"/>
    <path d="M9.67135 2.99455C9.55244 2.99455 9.43201 2.99908 9.31349 3.00808C9.13026 3.02196 8.99295 3.1818 9.00683 3.365C9.02067 3.54824 9.18106 3.68555 9.36375 3.67167C9.46562 3.66391 9.56913 3.66001 9.67135 3.66001C11.8729 3.66001 13.6641 5.45112 13.6641 7.65272C13.6641 7.96422 13.6281 8.27432 13.5572 8.57436C13.5166 8.74629 13.6225 8.925 13.7929 8.97171C13.9723 9.02083 14.1621 8.90835 14.2048 8.72742C14.2876 8.37728 14.3295 8.01572 14.3295 7.65272C14.3295 5.08418 12.2399 2.99455 9.67135 2.99455Z"
          fill="white"/>
</svg>
